<svg xmlns="http://www.w3.org/2000/svg" viewBox="0 0 25 25" id="Book"><g fill="#ffffff" transform="translate(4.499 -1031.861)" class="colorffffff svgShape"><circle cx="8.001" cy="1044.361" r="12.5" fill="#0b85ff" fill-rule="evenodd" class="colorffa40b svgShape"></circle><path style="line-height:normal;text-indent:0;text-align:start;text-decoration-line:none;text-decoration-style:solid;text-decoration-color:#000;text-transform:none;block-progression:tb;isolation:auto;mix-blend-mode:normal" d="m5.01 1.502-3 .6V3.012h-2v11h15v-11h-2v-.91l-3-.6-2.5.5-2.5-.5zm0 1.02 2 .398v7.982l-2-.4-2 .4v-7.98l2-.4zm5 0 2 .398v7.982l-2-.4-2 .4v-7.98l2-.4zm-9 1.49h1v8.11l3-.6 2 .4v1.09h-6v-9zm12 0h1v9h-6v-1.09l2-.4 3 .6v-8.11z" color="#000" font-family="sans-serif" font-weight="400" overflow="visible" transform="translate(.491 1036.85)" fill="#2c3e50" class="color000000 svgShape"></path></g></svg>